<svg xmlns="http://www.w3.org/2000/svg" width="32" height="32"><path d="M23.378.012v5.071s-3.738-.369-4.677 1.058c-.512.788-.208 3.077-.254 4.726h4.959c-.418 1.92-.719 3.225-1.028 4.898H18.42v15.754h-6.87V15.827H8.627v-4.96h2.891c.148-3.631.203-7.225 2.005-9.046C15.549-.234 17.484.012 23.378.012z"/></svg><svg xmlns="http://www.w3.org/2000/svg" width="32" height="32"><path d="M23.378.012v5.071s-3.738-.369-4.677 1.058c-.512.788-.208 3.077-.254 4.726h4.959c-.418 1.92-.719 3.225-1.028 4.898H18.42v15.754h-6.87V15.827H8.627v-4.96h2.891c.148-3.631.203-7.225 2.005-9.046C15.549-.234 17.484.012 23.378.012z"/></svg>