<svg xmlns="http://www.w3.org/2000/svg" width="32" height="32"><path d="M13.717 20.468c-.257 1.034-.517 2.105-.785 3.151a23.042 23.042 0 01-.937 3.201l.053-.161a15.669 15.669 0 01-2.536 4.372l.021-.027c-.708.812-.558.492-.77.443-.162-.037-.176-.197-.208-.418a24.204 24.204 0 01.015-4.204l-.007.093c.113-1.575.371-3.035.762-4.44l-.037.157c.596-2.535 1.164-5.022 1.766-7.582.062-.16.102-.345.111-.538v-.004a7.704 7.704 0 01-.525-2.055l-.003-.037a6.7 6.7 0 01.182-2.447l-.011.047a3.984 3.984 0 012.306-2.87l.026-.01c.259-.09.557-.142.867-.142.464 0 .901.116 1.283.322l-.014-.007c.547.332.939.874 1.065 1.512l.002.014a5.466 5.466 0 01-.108 2.364l.009-.038c-.329 1.502-.761 2.634-1.153 4.074a4.414 4.414 0 00-.282 1.565c0 .234.018.463.052.687l-.003-.025a2.62 2.62 0 001.035 1.57l.008.005a3.042 3.042 0 002.01.566l-.01.001a4.402 4.402 0 003.253-1.917l.01-.015a11.353 11.353 0 002.059-5.734l.002-.038a13.842 13.842 0 00.085-2.509l.002.036a6.714 6.714 0 00-1.399-3.856l.012.016a6.52 6.52 0 00-3.046-2.092l-.046-.013a9.969 9.969 0 00-2.914-.425c-.6 0-1.187.052-1.758.151l.061-.009a8.165 8.165 0 00-6.028 4.3l-.021.045a8.61 8.61 0 00-1.031 4.112v.089-.005a5.44 5.44 0 00.847 3.099l-.013-.022c.164.246.404.455.564.738a2.097 2.097 0 01-.152 1.44l.006-.012c-.135.529-.15 1.243-.761 1.255a1.698 1.698 0 01-.791-.299l.005.004a6.303 6.303 0 01-2.978-4.572l-.003-.031c-.116-.598-.182-1.285-.182-1.988s.066-1.39.193-2.056l-.011.068a11.42 11.42 0 015.363-7.54l.053-.029A12.604 12.604 0 0114.025.156l.066-.007a15.878 15.878 0 011.958-.16h.017a11.805 11.805 0 015.4 1.015l-.075-.03c1.44.646 2.66 1.539 3.66 2.637l.008.009a9.99 9.99 0 012.24 4.003l.017.071c.287.837.465 1.802.492 2.806v.013a17.108 17.108 0 01-.401 3.031l.022-.114a11.486 11.486 0 01-4.69 7.915l-.034.023a8.443 8.443 0 01-4.938 1.353h.015a5.693 5.693 0 01-2.469-.729l.028.015a4.102 4.102 0 01-1.613-1.52l-.01-.018z"/></svg>