<svg xmlns="http://www.w3.org/2000/svg" width="32" height="32"><path d="M21.439 3.089a6.62 6.62 0 015.107 2.028l.002.002a10.627 10.627 0 003.368-1.148l-.056.028.804-.443a6.52 6.52 0 01-2.08 3.031l-.012.009a3.118 3.118 0 01-.693.497l-.017.008v.012a12.001 12.001 0 003.734-1.015l-.075.031v.012a10.594 10.594 0 01-2.175 2.497l-.017.014c-.336.271-.673.542-1.009.8a18.71 18.71 0 01-.318 4.277l.019-.117c-1.615 7.249-5.893 12.172-12.663 14.289-1.607.478-3.453.753-5.363.753-1.339 0-2.647-.135-3.91-.392l.125.021a24.246 24.246 0 01-3.959-1.304l.16.061a15.67 15.67 0 01-1.9-.987l.07.04c-.19-.111-.378-.234-.567-.345a11.016 11.016 0 002.095.072l-.03.001c.636-.098 1.259-.074 1.846-.197a13.222 13.222 0 003.945-1.438l-.067.034a7.377 7.377 0 001.759-1.151l-.008.007a5.627 5.627 0 01-1.963-.357l.039.013a6.547 6.547 0 01-4.087-4.089l-.013-.046a6.412 6.412 0 002.931-.146l-.045.011a4.63 4.63 0 01-2.126-.858l.013.009c-1.836-1.097-3.047-3.074-3.047-5.334 0-.067.001-.135.003-.202v.01c.222.098.442.209.662.308.389.163.844.296 1.316.376l.037.005a1.738 1.738 0 00.894.072l-.011.002h-.032c-.325-.369-.855-.628-1.183-1.034a6.572 6.572 0 01-1.628-4.341c0-.538.064-1.061.186-1.562l-.009.045a7.374 7.374 0 01.713-1.722l-.019.036c.011 0 .021.012.032.012.173.255.365.477.581.674l.003.003a11.717 11.717 0 001.896 1.826l.028.02a18.873 18.873 0 007.773 3.791l.127.024a12.15 12.15 0 002.893.381h.009a6.066 6.066 0 01.041-3.083l-.01.042a6.385 6.385 0 013.618-4.316l.041-.016a6.97 6.97 0 011.388-.435l.047-.008c.261-.037.524-.062.786-.098z"/></svg>