<svg xmlns="http://www.w3.org/2000/svg" width="32" height="32"><path d="M31.065 25.89l-14.471 5.99a1.52 1.52 0 01-1.198-.004l.01.004L.935 25.89A1.503 1.503 0 010 24.5v-23A1.5 1.5 0 011.5 0c.206 0 .403.04.583.114L2.073.11c.001.006.006.01.012.01h.001L16 5.88 29.911.12h.001a.012.012 0 00.012-.01c.17-.07.367-.11.573-.11a1.5 1.5 0 011.5 1.5v23.002c0 .624-.381 1.158-.922 1.385l-.01.004zM14.5 8.5L3 3.74V23.5l11.5 4.76V8.5zM29 3.74L17.5 8.5v19.76L29 23.5V3.74zm-9.121 6.89l5.5-2.5c.183-.081.396-.129.62-.13h.01a1.5 1.5 0 01.62 2.866l-.009.004-5.5 2.5a1.575 1.575 0 01-.62.13h-.011a1.5 1.5 0 01-.62-2.866l.009-.004zm0 5.5l5.5-2.5c.183-.081.396-.129.62-.13h.01a1.5 1.5 0 01.62 2.866l-.009.004-5.5 2.5v-.01a1.43 1.43 0 01-.62.14h-.011a1.5 1.5 0 01-.62-2.866l.009-.004zm0 5.5l5.5-2.5c.183-.081.396-.129.62-.13h.01a1.5 1.5 0 01.62 2.866l-.009.004-5.5 2.5a1.575 1.575 0 01-.62.13h-.011a1.5 1.5 0 01-.62-2.866l.009-.004zM6 8c.225.002.438.049.631.134l-.01-.004 5.5 2.5a1.5 1.5 0 01-.611 2.87h-.011.001a1.578 1.578 0 01-.631-.134l.01.004-5.5-2.5A1.5 1.5 0 015.99 8h.011H6zm0 5.5c.225.002.438.049.631.134l-.01-.004 5.5 2.5A1.5 1.5 0 0111.51 19h-.011.001-.002c-.225 0-.438-.052-.628-.144l.009.004v.01l-5.5-2.5a1.5 1.5 0 01.611-2.87h.011H6zM6 19c.225.002.438.049.631.134l-.01-.004 5.5 2.5a1.5 1.5 0 01-.611 2.87h-.011.001a1.578 1.578 0 01-.631-.134l.01.004-5.5-2.5A1.5 1.5 0 015.99 19h.011H6z"/></svg>