<svg xmlns="http://www.w3.org/2000/svg" width="32" height="32"><path d="M30.74 10c-1.624-3.714-4.528-6.617-8.142-8.2l-.101-.04A5.828 5.828 0 0126.133.498a5.868 5.868 0 014.598 9.514L30.74 10zm-.24 6.5v.002c0 3.854-1.509 7.355-3.969 9.944l.006-.006 2.029 2.03A1.481 1.481 0 0127.518 31h-.001a1.506 1.506 0 01-1.049-.43l-2.178-2.18A14.35 14.35 0 0116 31a14.4 14.4 0 01-8.322-2.631l.046.031-2.163 2.16a1.5 1.5 0 11-2.122-2.12l2.012-2.01a14.438 14.438 0 01-3.941-9.936C1.51 8.489 8 1.999 16.005 1.999S30.5 8.489 30.5 16.494v.006zM16 5C9.649 5 4.5 10.149 4.5 16.5S9.649 28 16 28s11.5-5.149 11.5-11.5S22.351 5 16 5zm6 13h-6a1.5 1.5 0 01-1.5-1.5v-8a1.5 1.5 0 013 0V15H22a1.5 1.5 0 010 3zM1.287 10.21A5.96 5.96 0 01.003 6.5 6 6 0 016 .5h.012c1.402 0 2.691.486 3.706 1.299l-.012-.009c-3.797 1.655-6.765 4.622-8.379 8.317l-.04.103z"/></svg>