<svg aria-hidden="true" style="position:absolute;width:0;height:0"
    xmlns="http://www.w3.org/2000/svg" overflow="hidden">
    <defs>
        <symbol id="icon-alarm" viewBox="0 0 32 32">
            <path d="M30.74 10c-1.624-3.714-4.528-6.617-8.142-8.2l-.101-.04A5.828 5.828 0 0126.133.498a5.868 5.868 0 014.598 9.514L30.74 10zm-.24 6.5v.002c0 3.854-1.509 7.355-3.969 9.944l.006-.006 2.029 2.03A1.481 1.481 0 0127.518 31h-.001a1.506 1.506 0 01-1.049-.43l-2.178-2.18A14.35 14.35 0 0116 31a14.4 14.4 0 01-8.322-2.631l.046.031-2.163 2.16a1.5 1.5 0 11-2.122-2.12l2.012-2.01a14.438 14.438 0 01-3.941-9.936C1.51 8.489 8 1.999 16.005 1.999S30.5 8.489 30.5 16.494v.006zM16 5C9.649 5 4.5 10.149 4.5 16.5S9.649 28 16 28s11.5-5.149 11.5-11.5S22.351 5 16 5zm6 13h-6a1.5 1.5 0 01-1.5-1.5v-8a1.5 1.5 0 013 0V15H22a1.5 1.5 0 010 3zM1.287 10.21A5.96 5.96 0 01.003 6.5 6 6 0 016 .5h.012c1.402 0 2.691.486 3.706 1.299l-.012-.009c-3.797 1.655-6.765 4.622-8.379 8.317l-.04.103z"/>
        </symbol>
        <symbol id="icon-book" viewBox="0 0 32 32">
            <path d="M31.065 25.89l-14.471 5.99a1.52 1.52 0 01-1.198-.004l.01.004L.935 25.89A1.503 1.503 0 010 24.5v-23A1.5 1.5 0 011.5 0c.206 0 .403.04.583.114L2.073.11c.001.006.006.01.012.01h.001L16 5.88 29.911.12h.001a.012.012 0 00.012-.01c.17-.07.367-.11.573-.11a1.5 1.5 0 011.5 1.5v23.002c0 .624-.381 1.158-.922 1.385l-.01.004zM14.5 8.5L3 3.74V23.5l11.5 4.76V8.5zM29 3.74L17.5 8.5v19.76L29 23.5V3.74zm-9.121 6.89l5.5-2.5c.183-.081.396-.129.62-.13h.01a1.5 1.5 0 01.62 2.866l-.009.004-5.5 2.5a1.575 1.575 0 01-.62.13h-.011a1.5 1.5 0 01-.62-2.866l.009-.004zm0 5.5l5.5-2.5c.183-.081.396-.129.62-.13h.01a1.5 1.5 0 01.62 2.866l-.009.004-5.5 2.5v-.01a1.43 1.43 0 01-.62.14h-.011a1.5 1.5 0 01-.62-2.866l.009-.004zm0 5.5l5.5-2.5c.183-.081.396-.129.62-.13h.01a1.5 1.5 0 01.62 2.866l-.009.004-5.5 2.5a1.575 1.575 0 01-.62.13h-.011a1.5 1.5 0 01-.62-2.866l.009-.004zM6 8c.225.002.438.049.631.134l-.01-.004 5.5 2.5a1.5 1.5 0 01-.611 2.87h-.011.001a1.578 1.578 0 01-.631-.134l.01.004-5.5-2.5A1.5 1.5 0 015.99 8h.011H6zm0 5.5c.225.002.438.049.631.134l-.01-.004 5.5 2.5A1.5 1.5 0 0111.51 19h-.011.001-.002c-.225 0-.438-.052-.628-.144l.009.004v.01l-5.5-2.5a1.5 1.5 0 01.611-2.87h.011H6zM6 19c.225.002.438.049.631.134l-.01-.004 5.5 2.5a1.5 1.5 0 01-.611 2.87h-.011.001a1.578 1.578 0 01-.631-.134l.01.004-5.5-2.5A1.5 1.5 0 015.99 19h.011H6z"/>
        </symbol>
        <symbol id="icon-home" viewBox="0 0 32 32">
            <path d="M32 16.5v.006a1.492 1.492 0 01-2.521 1.083l.001.001v.01L16.003 4.12 2.557 17.57A1.5 1.5 0 01.004 16.5v-.007c0-.422.177-.803.46-1.072l.001-.001L14.923.96A1.505 1.505 0 0116.004.5h.092c.023 0 .045.01.068.01.371.04.696.213.932.469l.001.001 5.9 5.9V5.5a1.5 1.5 0 013 0v4.38l5.6 5.6c.25.265.403.623.403 1.017v.003zM29 19v10.5a1.5 1.5 0 01-1.5 1.5h-3V19h-6v12h-14A1.5 1.5 0 013 29.5V19L16 6zm-15.5 0h-6v6h6v-6z"/>
        </symbol>
        <symbol id="icon-img" viewBox="0 0 32 32">
            <path d="M30.5 32h-29A1.5 1.5 0 010 30.5v-29A1.5 1.5 0 011.5 0h29A1.5 1.5 0 0132 1.5v29a1.5 1.5 0 01-1.5 1.5zM29 3H3v26h26V3zM6.5 4.5H12a1.5 1.5 0 010 3H7.5V12a1.5 1.5 0 01-3 0V4.5h2zM4.5 20a1.5 1.5 0 013 0v4.5H12a1.5 1.5 0 010 3H4.5V20zM20 4.5h7.5V12a1.5 1.5 0 01-3 0V7.5H20a1.5 1.5 0 010-3zm0 20h4.5V20a1.5 1.5 0 013 0v7.5H20a1.5 1.5 0 010-3z"/>
        </symbol>
        <symbol id="icon-line_graph" viewBox="0 0 32 32">
            <path d="M30.5 32h-29A1.5 1.5 0 010 30.5v-29A1.5 1.5 0 011.5 0h29A1.5 1.5 0 0132 1.5v29a1.5 1.5 0 01-1.5 1.5zM29 3H3v26h26V3zM5.215 16.24l4-2.5a1.518 1.518 0 011.631.033l-.006-.004h.006l6.631 4.42 7.638-5.4a1.501 1.501 0 011.767 2.427l-.004.003-8.5 6c-.242.18-.547.289-.878.29a1.494 1.494 0 01-.865-.283l.004.003-6.657-4.43-3.135 1.95c-.236.169-.529.27-.847.27h-.003a1.5 1.5 0 01-.788-2.776l.006-.004z"/>
        </symbol>
        <symbol id="icon-pc" viewBox="0 0 32 32">
            <path d="M30.452 25.29h-9.806v2.581l2.065 2.065v.516H9.292v-.516l2.065-2.065V25.29H1.551a1.548 1.548 0 01-1.548-1.548V3.097c0-.855.693-1.548 1.548-1.548h28.903c.855 0 1.548.693 1.548 1.548v20.645c0 .855-.693 1.548-1.548 1.548zm-.517-21.677H2.064v17.548h27.871V3.613zm-17.032 7.226c.427.001.814.174 1.094.454l.97.97 3.035-3.035a1.548 1.548 0 112.189 2.187l-.001.001-4.129 4.129c-.28.28-.667.453-1.094.453s-.814-.173-1.094-.453l-2.065-2.065a1.547 1.547 0 011.094-2.642z"/>
        </symbol>
        <symbol id="icon-search" viewBox="0 0 32 32">
            <path d="M31.101 26.862a3 3 0 11-4.248 4.238l-8.769-8.78A11.896 11.896 0 0111.952 24C5.307 24-.08 18.613-.08 11.968S5.307-.064 11.952-.064c6.645 0 12.032 5.387 12.032 12.032 0 2.255-.62 4.365-1.7 6.169l.03-.055 8.788 8.78zm-19.1-23.846a8.987 8.987 0 108.987 8.987 8.993 8.993 0 00-8.987-8.987z"/>
        </symbol>
        <symbol id="icon-shopping-card" viewBox="0 0 32 32">
            <path d="M31.182 9.067l-4.409 9.778c-.22.488-.689.829-1.241.86h-.004l-12.658.844.729 2.092h13.796a2.933 2.933 0 11-2.933 2.935H10.773a2.934 2.934 0 11-2.933-2.934h2.649L4.836 6.509h-3.36a1.467 1.467 0 010-2.934h4.409a1.484 1.484 0 011.383.975l.003.01.853 2.441H29.838c.81 0 1.467.656 1.468 1.467-.005.217-.05.422-.129.61l.004-.011zm-22.026.865l2.702 7.746 12.604-.841 3.111-6.905H9.155z"/>
        </symbol>
        <symbol id="icon-soc_facebook" viewBox="0 0 32 32">
            <path d="M23.378.012v5.071s-3.738-.369-4.677 1.058c-.512.788-.208 3.077-.254 4.726h4.959c-.418 1.92-.719 3.225-1.028 4.898H18.42v15.754h-6.87V15.827H8.627v-4.96h2.891c.148-3.631.203-7.225 2.005-9.046C15.549-.234 17.484.012 23.378.012z"/>
        </symbol>
        <symbol id="icon-soc_instagram" viewBox="0 0 32 32">
            <path d="M27.962 31.988H3.981a3.997 3.997 0 01-3.997-3.997V4.01A3.997 3.997 0 013.981.013h23.981a3.997 3.997 0 013.997 3.997v23.981a3.997 3.997 0 01-3.997 3.997zM15.971 9.805h-.001a6.187 6.187 0 00-5.603 3.559l-.016.038a.343.343 0 01-.028.064l.001-.001c-.059.137-.11.275-.16.412-.024.062-.05.125-.071.187-.046.137-.084.287-.125.425a4.512 4.512 0 00-.052.2c-.032.15-.055.3-.076.462-.009.062-.021.125-.029.187a5.87 5.87 0 00-.036.661V16a6.195 6.195 0 1012.39 0 6.56 6.56 0 00-.039-.691l.003.029c-.008-.062-.02-.125-.029-.187a5.709 5.709 0 00-.076-.462 8.453 8.453 0 00-.052-.2c-.035-.137-.072-.287-.125-.425-.021-.062-.047-.125-.071-.187a7.763 7.763 0 00-.16-.412.297.297 0 01-.027-.06l-.001-.002c-1.004-2.14-3.139-3.596-5.615-3.597zm12.391-4.597v-.003c0-.882-.715-1.596-1.596-1.596H23.563c-.882 0-1.596.715-1.596 1.596v3.203c0 .882.715 1.596 1.596 1.596H26.766c.882 0 1.596-.715 1.596-1.596v-3.2zm0 8.194h-2.948c.222.778.35 1.671.35 2.594 0 5.408-4.384 9.792-9.792 9.792S6.18 21.404 6.18 15.996c0-.923.128-1.816.366-2.663l-.017.069H3.581v13.393c0 .882.715 1.596 1.596 1.596h21.589c.882 0 1.596-.715 1.596-1.596V13.402z"/>
        </symbol>
        <symbol id="icon-soc_pinterest" viewBox="0 0 32 32">
            <path d="M13.717 20.468c-.257 1.034-.517 2.105-.785 3.151a23.042 23.042 0 01-.937 3.201l.053-.161a15.669 15.669 0 01-2.536 4.372l.021-.027c-.708.812-.558.492-.77.443-.162-.037-.176-.197-.208-.418a24.204 24.204 0 01.015-4.204l-.007.093c.113-1.575.371-3.035.762-4.44l-.037.157c.596-2.535 1.164-5.022 1.766-7.582.062-.16.102-.345.111-.538v-.004a7.704 7.704 0 01-.525-2.055l-.003-.037a6.7 6.7 0 01.182-2.447l-.011.047a3.984 3.984 0 012.306-2.87l.026-.01c.259-.09.557-.142.867-.142.464 0 .901.116 1.283.322l-.014-.007c.547.332.939.874 1.065 1.512l.002.014a5.466 5.466 0 01-.108 2.364l.009-.038c-.329 1.502-.761 2.634-1.153 4.074a4.414 4.414 0 00-.282 1.565c0 .234.018.463.052.687l-.003-.025a2.62 2.62 0 001.035 1.57l.008.005a3.042 3.042 0 002.01.566l-.01.001a4.402 4.402 0 003.253-1.917l.01-.015a11.353 11.353 0 002.059-5.734l.002-.038a13.842 13.842 0 00.085-2.509l.002.036a6.714 6.714 0 00-1.399-3.856l.012.016a6.52 6.52 0 00-3.046-2.092l-.046-.013a9.969 9.969 0 00-2.914-.425c-.6 0-1.187.052-1.758.151l.061-.009a8.165 8.165 0 00-6.028 4.3l-.021.045a8.61 8.61 0 00-1.031 4.112v.089-.005a5.44 5.44 0 00.847 3.099l-.013-.022c.164.246.404.455.564.738a2.097 2.097 0 01-.152 1.44l.006-.012c-.135.529-.15 1.243-.761 1.255a1.698 1.698 0 01-.791-.299l.005.004a6.303 6.303 0 01-2.978-4.572l-.003-.031c-.116-.598-.182-1.285-.182-1.988s.066-1.39.193-2.056l-.011.068a11.42 11.42 0 015.363-7.54l.053-.029A12.604 12.604 0 0114.025.156l.066-.007a15.878 15.878 0 011.958-.16h.017a11.805 11.805 0 015.4 1.015l-.075-.03c1.44.646 2.66 1.539 3.66 2.637l.008.009a9.99 9.99 0 012.24 4.003l.017.071c.287.837.465 1.802.492 2.806v.013a17.108 17.108 0 01-.401 3.031l.022-.114a11.486 11.486 0 01-4.69 7.915l-.034.023a8.443 8.443 0 01-4.938 1.353h.015a5.693 5.693 0 01-2.469-.729l.028.015a4.102 4.102 0 01-1.613-1.52l-.01-.018z"/>
        </symbol>
        <symbol id="icon-soc_twitter" viewBox="0 0 32 32">
            <path d="M21.439 3.089a6.62 6.62 0 015.107 2.028l.002.002a10.627 10.627 0 003.368-1.148l-.056.028.804-.443a6.52 6.52 0 01-2.08 3.031l-.012.009a3.118 3.118 0 01-.693.497l-.017.008v.012a12.001 12.001 0 003.734-1.015l-.075.031v.012a10.594 10.594 0 01-2.175 2.497l-.017.014c-.336.271-.673.542-1.009.8a18.71 18.71 0 01-.318 4.277l.019-.117c-1.615 7.249-5.893 12.172-12.663 14.289-1.607.478-3.453.753-5.363.753-1.339 0-2.647-.135-3.91-.392l.125.021a24.246 24.246 0 01-3.959-1.304l.16.061a15.67 15.67 0 01-1.9-.987l.07.04c-.19-.111-.378-.234-.567-.345a11.016 11.016 0 002.095.072l-.03.001c.636-.098 1.259-.074 1.846-.197a13.222 13.222 0 003.945-1.438l-.067.034a7.377 7.377 0 001.759-1.151l-.008.007a5.627 5.627 0 01-1.963-.357l.039.013a6.547 6.547 0 01-4.087-4.089l-.013-.046a6.412 6.412 0 002.931-.146l-.045.011a4.63 4.63 0 01-2.126-.858l.013.009c-1.836-1.097-3.047-3.074-3.047-5.334 0-.067.001-.135.003-.202v.01c.222.098.442.209.662.308.389.163.844.296 1.316.376l.037.005a1.738 1.738 0 00.894.072l-.011.002h-.032c-.325-.369-.855-.628-1.183-1.034a6.572 6.572 0 01-1.628-4.341c0-.538.064-1.061.186-1.562l-.009.045a7.374 7.374 0 01.713-1.722l-.019.036c.011 0 .021.012.032.012.173.255.365.477.581.674l.003.003a11.717 11.717 0 001.896 1.826l.028.02a18.873 18.873 0 007.773 3.791l.127.024a12.15 12.15 0 002.893.381h.009a6.066 6.066 0 01.041-3.083l-.01.042a6.385 6.385 0 013.618-4.316l.041-.016a6.97 6.97 0 011.388-.435l.047-.008c.261-.037.524-.062.786-.098z"/>
        </symbol>
    </defs>
</svg>